<svg width="58" height="58" viewBox="0 0 58 58" fill="none" xmlns="http://www.w3.org/2000/svg">
<g filter="url(#filter0_d_404_729)">
<path d="M16.1 38.25C18.2 36.7833 20.2833 35.6583 22.35 34.875C24.4167 34.0917 26.6333 33.7 29 33.7C31.3667 33.7 33.5917 34.0917 35.675 34.875C37.7583 35.6583 39.85 36.7833 41.95 38.25C43.4167 36.45 44.4583 34.6333 45.075 32.8C45.6917 30.9667 46 29.0333 46 27C46 22.1667 44.375 18.125 41.125 14.875C37.875 11.625 33.8333 10 29 10C24.1667 10 20.125 11.625 16.875 14.875C13.625 18.125 12 22.1667 12 27C12 29.0333 12.3167 30.9667 12.95 32.8C13.5833 34.6333 14.6333 36.45 16.1 38.25ZM28.9907 28.5C27.0636 28.5 25.4417 27.8386 24.125 26.5157C22.8083 25.1928 22.15 23.5678 22.15 21.6407C22.15 19.7136 22.8114 18.0917 24.1343 16.775C25.4572 15.4583 27.0822 14.8 29.0093 14.8C30.9364 14.8 32.5583 15.4614 33.875 16.7843C35.1917 18.1072 35.85 19.7322 35.85 21.6593C35.85 23.5864 35.1886 25.2083 33.8657 26.525C32.5428 27.8417 30.9178 28.5 28.9907 28.5ZM29.0234 47C26.2745 47 23.6833 46.475 21.25 45.425C18.8167 44.375 16.6917 42.9417 14.875 41.125C13.0583 39.3083 11.625 37.1872 10.575 34.7617C9.525 32.3362 9 29.7445 9 26.9867C9 24.2289 9.525 21.6417 10.575 19.225C11.625 16.8083 13.0583 14.6917 14.875 12.875C16.6917 11.0583 18.8128 9.625 21.2383 8.575C23.6638 7.525 26.2555 7 29.0133 7C31.7711 7 34.3583 7.525 36.775 8.575C39.1917 9.625 41.3083 11.0583 43.125 12.875C44.9417 14.6917 46.375 16.8089 47.425 19.2266C48.475 21.6443 49 24.2277 49 26.9766C49 29.7255 48.475 32.3167 47.425 34.75C46.375 37.1833 44.9417 39.3083 43.125 41.125C41.3083 42.9417 39.1911 44.375 36.7734 45.425C34.3557 46.475 31.7723 47 29.0234 47ZM29 44C30.8333 44 32.625 43.7333 34.375 43.2C36.125 42.6667 37.85 41.7333 39.55 40.4C37.85 39.2 36.1167 38.2833 34.35 37.65C32.5833 37.0167 30.8 36.7 29 36.7C27.2 36.7 25.4167 37.0167 23.65 37.65C21.8833 38.2833 20.15 39.2 18.45 40.4C20.15 41.7333 21.875 42.6667 23.625 43.2C25.375 43.7333 27.1667 44 29 44ZM29 25.5C30.1333 25.5 31.0583 25.1417 31.775 24.425C32.4917 23.7083 32.85 22.7833 32.85 21.65C32.85 20.5167 32.4917 19.5917 31.775 18.875C31.0583 18.1583 30.1333 17.8 29 17.8C27.8667 17.8 26.9417 18.1583 26.225 18.875C25.5083 19.5917 25.15 20.5167 25.15 21.65C25.15 22.7833 25.5083 23.7083 26.225 24.425C26.9417 25.1417 27.8667 25.5 29 25.5Z" fill="white"/>
</g>
<defs>
<filter id="filter0_d_404_729" x="0" y="0" width="58" height="58" filterUnits="userSpaceOnUse" color-interpolation-filters="sRGB">
<feFlood flood-opacity="0" result="BackgroundImageFix"/>
<feColorMatrix in="SourceAlpha" type="matrix" values="0 0 0 0 0 0 0 0 0 0 0 0 0 0 0 0 0 0 127 0" result="hardAlpha"/>
<feMorphology radius="5" operator="dilate" in="SourceAlpha" result="effect1_dropShadow_404_729"/>
<feOffset dy="2"/>
<feGaussianBlur stdDeviation="2"/>
<feComposite in2="hardAlpha" operator="out"/>
<feColorMatrix type="matrix" values="0 0 0 0 1 0 0 0 0 1 0 0 0 0 1 0 0 0 1 0"/>
<feBlend mode="normal" in2="BackgroundImageFix" result="effect1_dropShadow_404_729"/>
<feBlend mode="normal" in="SourceGraphic" in2="effect1_dropShadow_404_729" result="shape"/>
</filter>
</defs>
</svg>
